<svg id="Laag_1" data-name="Laag 1" xmlns="http://www.w3.org/2000/svg" viewBox="0 0 94.51 111.15"><defs><style>.cls-1{fill:#f6a316;}</style></defs><title>muzieknoot</title><path class="cls-1" d="M79.06,134.23v70s-25.88-3-26.27,15.2a.77.77,0,0,0,0,.27c.79,2.32,3.23,10.79,15.22,9.19a20.27,20.27,0,0,0,17.17-16.73l.44-42.71,55.48-13.65v32.58c-20.69-6.6-25.43,10.15-26,12.77-.62,3-.47,10.25,11.08,11.67a14.39,14.39,0,0,0,6-.55c4.71-1.48,13.43-5.41,15-14.64V117.94Zm62.08,6.16L85.22,154.48v-7l55.92-13.21Z" transform="translate(-52.79 -117.94)"/></svg>